<svg width="64" height="37" viewBox="0 0 64 37" fill="none" xmlns="http://www.w3.org/2000/svg">
  <path
    d="M15.8405 14.4601H18.8645L14.8805 31.0921H11.8565L13.6325 23.7001H6.81653L5.04053 31.0921H2.01653L6.00053 14.4601H9.02453L7.41653 21.1321H14.2325L15.8405 14.4601ZM30.5741 26.5561C30.5741 25.4841 30.7421 24.4521 31.0781 23.4601C31.4301 22.4521 31.9261 21.5641 32.5661 20.7961C33.2221 20.0121 34.0061 19.3881 34.9181 18.9241C35.8301 18.4601 36.8541 18.2281 37.9901 18.2281C39.2061 18.2281 40.1501 18.5401 40.8221 19.1641C41.4941 19.7881 41.8301 20.5881 41.8301 21.5641C41.8301 22.5721 41.5821 23.3881 41.0861 24.0121C40.5901 24.6361 39.9421 25.1241 39.1421 25.4761C38.3581 25.8281 37.4621 26.0681 36.4541 26.1961C35.4621 26.3241 34.4541 26.4041 33.4301 26.4361C33.4141 26.4681 33.4061 26.5001 33.4061 26.5321V26.7721C33.4061 28.2281 34.3261 28.9561 36.1661 28.9561C37.2541 28.9561 38.3421 28.7321 39.4301 28.2841L39.6701 30.6361C39.2861 30.8121 38.7421 30.9881 38.0381 31.1641C37.3341 31.3401 36.5341 31.4281 35.6381 31.4281C34.7421 31.4281 33.9741 31.3001 33.3341 31.0441C32.6941 30.7881 32.1661 30.4361 31.7501 29.9881C31.3501 29.5401 31.0541 29.0281 30.8621 28.4521C30.6701 27.8601 30.5741 27.2281 30.5741 26.5561ZM37.5581 20.6041C37.0781 20.6041 36.6221 20.7001 36.1901 20.8921C35.7581 21.0841 35.3741 21.3481 35.0381 21.6841C34.7021 22.0201 34.4061 22.4201 34.1501 22.8841C33.9101 23.3321 33.7341 23.8201 33.6221 24.3481C35.5421 24.2841 36.9341 24.0521 37.7981 23.6521C38.6781 23.2521 39.1181 22.6521 39.1181 21.8521C39.1181 21.5321 38.9981 21.2441 38.7581 20.9881C38.5341 20.7321 38.1341 20.6041 37.5581 20.6041ZM46.1846 29.0521C46.9526 29.0521 47.5606 28.9321 48.0086 28.6921C48.4566 28.4361 48.6806 28.0521 48.6806 27.5401C48.6806 27.1241 48.5366 26.7961 48.2486 26.5561C47.9606 26.3001 47.4566 26.0041 46.7366 25.6681C46.3526 25.4921 45.9926 25.3081 45.6566 25.1161C45.3366 24.9241 45.0566 24.7001 44.8166 24.4441C44.5766 24.1881 44.3846 23.8921 44.2406 23.5561C44.0966 23.2041 44.0246 22.7881 44.0246 22.3081C44.0246 21.0601 44.4806 20.0681 45.3926 19.3321C46.3046 18.5961 47.6246 18.2281 49.3526 18.2281C50.1526 18.2281 50.8646 18.3161 51.4886 18.4921C52.1286 18.6521 52.6086 18.8201 52.9286 18.9961L51.8966 21.2521C51.6246 21.0921 51.2326 20.9401 50.7206 20.7961C50.2086 20.6361 49.6726 20.5561 49.1126 20.5561C48.8406 20.5561 48.5686 20.5801 48.2966 20.6281C48.0406 20.6761 47.8086 20.7561 47.6006 20.8681C47.3926 20.9801 47.2166 21.1401 47.0726 21.3481C46.9446 21.5401 46.8806 21.7801 46.8806 22.0681C46.8806 22.4361 47.0246 22.7401 47.3126 22.9801C47.6166 23.2041 48.0486 23.4441 48.6086 23.7001C49.1366 23.9401 49.5846 24.1721 49.9526 24.3961C50.3206 24.6201 50.6246 24.8761 50.8646 25.1641C51.1046 25.4361 51.2806 25.7481 51.3926 26.1001C51.5046 26.4361 51.5606 26.8441 51.5606 27.3241C51.5606 27.9161 51.4406 28.4681 51.2006 28.9801C50.9606 29.4761 50.6086 29.9081 50.1446 30.2761C49.6966 30.6281 49.1366 30.9081 48.4646 31.1161C47.7926 31.3241 47.0246 31.4281 46.1606 31.4281C45.5686 31.4281 45.0326 31.3881 44.5526 31.3081C44.0886 31.2281 43.6806 31.1401 43.3286 31.0441C42.9766 30.9321 42.6806 30.8201 42.4406 30.7081C42.2006 30.5961 42.0166 30.5001 41.8886 30.4201L42.9206 28.1401C43.0326 28.2041 43.1926 28.2921 43.4006 28.4041C43.6246 28.5001 43.8726 28.5961 44.1446 28.6921C44.4326 28.7881 44.7446 28.8761 45.0806 28.9561C45.4326 29.0201 45.8006 29.0521 46.1846 29.0521ZM56.708 29.0521C57.476 29.0521 58.084 28.9321 58.532 28.6921C58.98 28.4361 59.204 28.0521 59.204 27.5401C59.204 27.1241 59.06 26.7961 58.772 26.5561C58.484 26.3001 57.98 26.0041 57.26 25.6681C56.876 25.4921 56.516 25.3081 56.18 25.1161C55.86 24.9241 55.58 24.7001 55.34 24.4441C55.1 24.1881 54.908 23.8921 54.764 23.5561C54.62 23.2041 54.548 22.7881 54.548 22.3081C54.548 21.0601 55.004 20.0681 55.916 19.3321C56.828 18.5961 58.148 18.2281 59.876 18.2281C60.676 18.2281 61.388 18.3161 62.012 18.4921C62.652 18.6521 63.132 18.8201 63.452 18.9961L62.42 21.2521C62.148 21.0921 61.756 20.9401 61.244 20.7961C60.732 20.6361 60.196 20.5561 59.636 20.5561C59.364 20.5561 59.092 20.5801 58.82 20.6281C58.564 20.6761 58.332 20.7561 58.124 20.8681C57.916 20.9801 57.74 21.1401 57.596 21.3481C57.468 21.5401 57.404 21.7801 57.404 22.0681C57.404 22.4361 57.548 22.7401 57.836 22.9801C58.14 23.2041 58.572 23.4441 59.132 23.7001C59.66 23.9401 60.108 24.1721 60.476 24.3961C60.844 24.6201 61.148 24.8761 61.388 25.1641C61.628 25.4361 61.804 25.7481 61.916 26.1001C62.028 26.4361 62.084 26.8441 62.084 27.3241C62.084 27.9161 61.964 28.4681 61.724 28.9801C61.484 29.4761 61.132 29.9081 60.668 30.2761C60.22 30.6281 59.66 30.9081 58.988 31.1161C58.316 31.3241 57.548 31.4281 56.684 31.4281C56.092 31.4281 55.556 31.3881 55.076 31.3081C54.612 31.2281 54.204 31.1401 53.852 31.0441C53.5 30.9321 53.204 30.8201 52.964 30.7081C52.724 30.5961 52.54 30.5001 52.412 30.4201L53.444 28.1401C53.556 28.2041 53.716 28.2921 53.924 28.4041C54.148 28.5001 54.396 28.5961 54.668 28.6921C54.956 28.7881 55.268 28.8761 55.604 28.9561C55.956 29.0201 56.324 29.0521 56.708 29.0521Z"
    fill="#8DF894" />
  <path
    d="M25.0559 25.3605C23.7739 18.1779 20.4489 17.0799 20.4489 17.0799C25.2485 24.6876 23.3761 33.0111 23.3761 33.0111C27.387 21.608 35.814 16.1069 35.814 16.1069C28.2973 19.3503 25.0559 25.3605 25.0559 25.3605ZM27.3881 16.3524C28.1946 16.614 28.5212 17.8344 28.1175 19.0792C27.714 20.3231 26.7332 21.1194 25.9267 20.8578C25.1194 20.596 24.7927 19.3756 25.1962 18.1316C25.6 16.8868 26.5808 16.0905 27.3881 16.3524ZM36.1064 5.80972C36.1064 5.80972 36.1592 6.7771 35.7274 7.45023C35.295 8.12535 34.5417 8.25035 34.5417 8.25035C34.5417 8.25035 34.4887 7.2839 34.9208 6.60981C35.3529 5.93576 36.1064 5.80972 36.1064 5.80972ZM29.7542 4.13054C29.7542 4.13054 30.105 4.90424 29.8786 5.70003C29.6531 6.49519 28.9367 7.01118 28.9367 7.01118C28.9367 7.01118 28.5868 6.2368 28.8122 5.44173C29.0377 4.64646 29.7542 4.13054 29.7542 4.13054ZM39.6121 14.7395C39.6121 14.7395 39.0907 15.5985 38.4858 15.7263C37.8807 15.8529 37.4211 15.2006 37.4211 15.2006C37.4211 15.2006 37.9426 14.3416 38.5473 14.2138C39.1525 14.0872 39.6121 14.7395 39.6121 14.7395ZM21.6622 8.31695C21.6622 8.31695 22.3512 8.5296 22.5202 9.23879C22.6894 9.94921 22.2741 10.8879 22.2741 10.8879C22.2741 10.8879 21.5855 10.6765 21.4162 9.96605C21.2469 9.25558 21.6622 8.31695 21.6622 8.31695ZM15.6033 16.964C15.6033 16.964 16.2523 16.2792 16.8264 16.3715C17.4005 16.4639 17.6807 17.2998 17.6807 17.2998C17.6807 17.2998 17.031 17.9844 16.4576 17.8923C15.8838 17.799 15.6033 16.964 15.6033 16.964Z"
    fill="#8DF894" />
</svg>