<svg xmlns="http://www.w3.org/2000/svg" width="733.767" height="429.315" viewBox="0 0 733.767 429.315"><g id="Group_3336" data-name="Group 3336" transform="translate(-1476.725 -2093.793)"><g id="Group_3322" data-name="Group 3322" transform="translate(1476.725 2093.793)"><ellipse id="Ellipse_87" data-name="Ellipse 87" cx="366.884" cy="16.503" rx="366.884" ry="16.503" transform="translate(0 396.309)" fill="#10275b" opacity="0.1"/><ellipse id="Ellipse_88" data-name="Ellipse 88" cx="285.806" cy="7.844" rx="285.806" ry="7.844" transform="translate(99.694 404.02)" fill="#10275b" opacity="0.1"/><g id="Group_3321" data-name="Group 3321" transform="translate(259.169)"><path id="Path_5051" data-name="Path 5051" d="M2057.649,2466.156h-4.509l-17.053-102.6,6.145-1.066Z" transform="translate(-1654.469 -2054.68)" fill="#a9b1c4"/><path id="Path_5052" data-name="Path 5052" d="M2026.7,2465.89h-4.312l-16.074-101.57h7.057Z" transform="translate(-1658.803 -2054.414)" fill="#a9b1c4"/><path id="Path_5053" data-name="Path 5053" d="M1978.166,2465.982h-4.7l15.877-102.3,6.469.138Z" transform="translate(-1663.585 -2054.506)" fill="#a9b1c4"/><g id="Group_3308" data-name="Group 3308" transform="translate(146.956)"><path id="Path_5054" data-name="Path 5054" d="M1887.373,2147.39c-1.764-6.076-2.941-22.345-2.941-22.345l2.744-6.469H1910.5l15.68,17.054-2.156,11.76a33.019,33.019,0,0,1-4.756,7.412c.006,2.767.329,8.089,2.59,10.775,3.137,3.724,15.388,5.192,15.979,5.278,1.581.23-19.7,51.372-19.7,51.372h-16.073l-12.937-44.692s1.372-5.685,6.861-7.057c3.308-.828,4.333-4.284,4.628-6.9C1891.339,2162.711,1889.072,2153.246,1887.373,2147.39Z" transform="translate(-1823.502 -2090.186)" fill="#e6a981"/><path id="Path_5055" data-name="Path 5055" d="M1916.073,2149.28s1.15,9.885,2.45,11.663,4.621,1.681,4-.924-1.506-3.729.076-4.306,2.024,1.481,4.229,1.629-.956-1.985,0-3.014,1.69,1.323,3.161.146-2.353-1.47-2.132-3.234-7.586-49.309-10.305-52.029-36.075,11.732-37.3,15.245c-.76,2.174-3.968.771-4.409,3.325-.561,3.254,3.29,1.752,3.878,4.055s-2.14,1.4-2.581,7.278,4.41,2.719,5.66,5.145-.294,7.719-.073,10.071,4.058,7.565,5.8,7.939-.133-.735-.06-3.234-2.125-9.335-1.757-12.129-.161-5.734-.455-9.187,8.38,1.69,8.894.588,1.25-2.94,2.941-2.5,6.985,2.762,6.958.8c-.04-3.039,4.606-1.606,4.361,1.079-.146,1.61,3.358,5.586,2.254,7.35s-1.666,3.927-1.3,5.1,1.03,3.087,2.646,2.131,1.4-4.7,3.9-5.218,4.264.882,4.116,4.043-1.911,6.909-2.793,7.718A2.5,2.5,0,0,1,1916.073,2149.28Z" transform="translate(-1824.76 -2093.054)" fill="#10275b"/><path id="Path_5056" data-name="Path 5056" d="M1872.116,2294.19l-.671,4.506a10.921,10.921,0,0,1-10.8,9.314h-29.394s-.294-4.411,5.734-5.734,12.5-.441,20.14-6.027,6.028-7.2,6.028-7.2Z" transform="translate(-1831.244 -2065.371)" fill="#e6a981"/><path id="Path_5057" data-name="Path 5057" d="M1869.205,2316.218l-13.222-5.153s10.576-55.638,14.692-62.988,9.5-54.952,10.646-63.737c1.47-11.271,9.583-16.937,11.406-16.827l5.88,62.923s-10.878,16.465-12.349,23.522-4.41,23.228-7.057,30.579S1869.205,2316.218,1869.205,2316.218Z" transform="translate(-1827.643 -2083.063)" fill="#fa5767"/><path id="Path_5058" data-name="Path 5058" d="M1929.787,2439.842l.526-15.69-12.118.644,2.342,17.447Z" transform="translate(-1818.587 -2045.704)" fill="#e6a981"/><path id="Path_5059" data-name="Path 5059" d="M1900.3,2442.533l.526-15.69-12.118.644,2.342,17.446Z" transform="translate(-1822.879 -2045.313)" fill="#e6a981"/><path id="Path_5060" data-name="Path 5060" d="M1933.921,2440.634v12.3h-40.326s-1.961-2.941,6.86-4.509,11.174-1.96,14.506-3.92,8.428-8.821,8.428-8.821l10.532,1.177Z" transform="translate(-1822.195 -2044.026)" fill="#10275b"/><path id="Path_5061" data-name="Path 5061" d="M1905.8,2441.683v10.972h-43.713s2.353-4.9,11.566-5.585,17.328-6.546,17.328-6.546v-2.963l14.819.785Z" transform="translate(-1826.754 -2043.752)" fill="#10275b"/><path id="Path_5062" data-name="Path 5062" d="M1967.425,2277.1a136.33,136.33,0,0,1-6.106,35.389c-5.88,18.427-14.9,41.557-15.682,54.493s1.177,34.5-.783,49.4-6.566,30.208-6.566,34.03-16.76,2.94-16.76,0-4.117-83.035-4.117-83.035v-48l-16.759,33.6a234.7,234.7,0,0,1,3.234,50.278c-1.177,28.227,3.381,29.623,3.381,29.623s-2.205,14.307-2.205,18.13-18.523,3.234-18.229,0-15.583-83.917-17.053-93.915,3.381-37.489,6.616-50.279,11.932-30.424,11.932-30.424Z" transform="translate(-1825.674 -2067.214)" fill="#233868"/><path id="Path_5063" data-name="Path 5063" d="M1875.974,2282.7c-.574-11.792-7.238-28.97-1.548-39.531,6.769-12.561,1.891-24.094,6.808-45.6l12.716,3.837,2.3,24.659s-10.878,16.465-12.349,23.522-4.41,23.228-7.057,30.579C1876.6,2280.863,1876.3,2281.721,1875.974,2282.7Z" transform="translate(-1825.29 -2078.688)" fill="#dbe2f0" style="mix-blend-mode: multiply;isolation: isolate"/><path id="Path_5064" data-name="Path 5064" d="M1932.047,2163.217c-7.015,9.98-16.794,29.754-21.18,42.127a2.731,2.731,0,0,1-4.957.421c-9.9-17.89-10.7-34.93-11.783-40.842,0,0-7.247,3.214-9.035,5.836-3.918,5.741-5.62,37.421-5.1,40.3,1.764,9.7,17.2,37.4,21.022,39.755l-1.14,7.489-15.986,39.616s8.79,9.287,30.968,11.933,44.818-5.586,50.7-9.408c1.205-12.262-.794-21.081-3.921-28.716-2.9-7.074-10.325-15.8-10.325-15.8l-.648-6.259c6.371-21.745,14.874-45.7,12.84-60.66-2.84-20.871-19.9-24.265-19.9-24.265Z" transform="translate(-1824.161 -2083.688)" fill="#fa5767"/><path id="Path_5065" data-name="Path 5065" d="M1918.093,2295.016l-11.593-4.41s-4.284,7.351-4.284,13.231,6.468,2.941,7.939,5.881-1.177,10,1.47,12.348,7.057,2.353,10-5-3.235-11.173-5.882-12.055S1918.093,2295.016,1918.093,2295.016Z" transform="translate(-1820.913 -2065.144)" fill="#e6a981"/><path id="Path_5066" data-name="Path 5066" d="M1948.124,2238.684l.648,6.259s-20.186,10.411-51.434,2.376l1.14-7.489S1918.232,2247.687,1948.124,2238.684Z" transform="translate(-1821.623 -2072.702)" fill="#10275b"/><path id="Path_5067" data-name="Path 5067" d="M1918.238,2313.676c-.441,2.058-14.912,0-15.527-1.7s3.987-24.914,6.79-39.884,4.852-14.408,6.175-21.611,10.618-46.447,14.293-57.767,4.944-25.974,12.533-23.953c18.212,4.852,15.642,24.93,12.7,36.986s-18.652,45.028-20.27,50.027-5.734,27.784-9.7,40.281S1918.238,2313.676,1918.238,2313.676Z" transform="translate(-1820.849 -2082.907)" fill="#fa5767"/><path id="Path_5068" data-name="Path 5068" d="M1947.936,2333.5a105.847,105.847,0,0,0,4.588-34.695c-1.113-27.835-13.065-40.923-13.065-40.923s-2.484,6.62-4.439,19.458-9.12,32.54-12.256,38.441-3.237,6.652-3.237,6.652-1.858-.5-1.359-5.628,1.794-14.936,8.69-30.1c11.473-25.221,6.027-30.178,11.229-38.1,28.581-43.5,14.834-72.553-3.593-79.15s-11.938-15.33-13.048-15.364a12.868,12.868,0,0,0,2.288,6.3c1.656,1.965,5.848,3.3,9.527,4.138h0l11.559,1.527s17.056,3.394,19.9,24.265c2.036,14.961-6.469,38.915-12.84,60.659l.648,6.26s7.427,8.728,10.325,15.8a55.384,55.384,0,0,1,4.272,21.846h0s0,.059,0,.154c-.009,2.123-.119,4.354-.352,6.717-.024.016-.055.033-.08.049a137.772,137.772,0,0,1-5.671,28.469c-5.88,18.427-14.9,41.557-15.682,54.493s1.177,34.5-.783,49.4-4.707.171-9.916-35.994c-2.636-18.3-3.848-21.082,1-33.991,3.539-9.417-5.184-16.729-18.531-16.729v-10.3l-16.759,33.6c4.148,18.548,2.467,40.06,2.908,57.85s3.708,22.051,3.708,22.051a30.406,30.406,0,0,1-10.38-30.235c5.579-26.255-3.479-30.708-3.892-50.908-.588-28.823-15.751-23.089-21.129-22.377,1.59-12.7,2.514-13.649,2.514-13.649Z" transform="translate(-1825.374 -2085.015)" fill="#10275b" opacity="0.1" style="mix-blend-mode: multiply;isolation: isolate"/><circle id="Ellipse_89" data-name="Ellipse 89" cx="2.269" cy="2.269" r="2.269" transform="translate(80.576 147.124)" fill="#10275b" opacity="0.1" style="mix-blend-mode: multiply;isolation: isolate"/><path id="Path_5069" data-name="Path 5069" d="M1901.979,2230.613a2.269,2.269,0,1,0,2.269-2.269A2.269,2.269,0,0,0,1901.979,2230.613Z" transform="translate(-1820.947 -2074.207)" fill="#10275b" opacity="0.1" style="mix-blend-mode: multiply;isolation: isolate"/><circle id="Ellipse_90" data-name="Ellipse 90" cx="2.269" cy="2.269" r="2.269" transform="translate(81.032 161.151)" fill="#10275b" opacity="0.1" style="mix-blend-mode: multiply;isolation: isolate"/><ellipse id="Ellipse_91" data-name="Ellipse 91" cx="8.447" cy="9.865" rx="8.447" ry="9.865" transform="translate(96.824 38.47)" fill="#10275b"/><ellipse id="Ellipse_92" data-name="Ellipse 92" cx="13.606" cy="15.017" rx="13.606" ry="15.017" transform="translate(87.677 16.539)" fill="#10275b"/><circle id="Ellipse_93" data-name="Ellipse 93" cx="15.017" cy="15.017" r="15.017" transform="translate(77.09 5.47)" fill="#10275b"/><circle id="Ellipse_94" data-name="Ellipse 94" cx="15.017" cy="15.017" r="15.017" transform="translate(65.413)" fill="#10275b"/><circle id="Ellipse_95" data-name="Ellipse 95" cx="13.277" cy="13.277" r="13.277" transform="translate(54.244 7.21)" fill="#10275b"/><ellipse id="Ellipse_96" data-name="Ellipse 96" cx="8.098" cy="8.507" rx="8.098" ry="8.507" transform="translate(48.732 21.527)" fill="#10275b"/><ellipse id="Ellipse_97" data-name="Ellipse 97" cx="15.935" cy="9.547" rx="15.935" ry="9.547" transform="translate(62.869 19.375)" fill="#10275b"/><circle id="Ellipse_98" data-name="Ellipse 98" cx="7.791" cy="7.791" r="7.791" transform="translate(93.537 49.64)" fill="#10275b"/></g><rect id="Rectangle_434" data-name="Rectangle 434" width="43.712" height="2.271" transform="translate(226.001 410.121) rotate(-180)" fill="#fff"/><rect id="Rectangle_435" data-name="Rectangle 435" width="43.712" height="2.271" transform="translate(258.296 410.121) rotate(-180)" fill="#fff"/><path id="Path_5070" data-name="Path 5070" d="M2083.085,2261.682h-39.056l2.646,102.615s19.406-66.45,24.4-79.386c3.024-7.827,9.277-14.685,13.744-18.881A2.52,2.52,0,0,0,2083.085,2261.682Z" transform="translate(-1653.313 -2069.354)" fill="#d6dae3"/><g id="Group_3309" data-name="Group 3309" transform="translate(160.241 85.798)"><path id="Path_5071" data-name="Path 5071" d="M2028.312,2227.09l-24.858,4.276-2.793-1.862-9.262,10.242-17,82.837,34.007,12.055,26.277-103.73Z" transform="translate(-1823.691 -2160.188)" fill="#fff"/><path id="Path_5072" data-name="Path 5072" d="M1893.56,2443.138l-5.88,10.731-44.839-27.344s1.616-2.94,9.555,1.03,17.79,8.38,26.168,7.791l3.6-.661Z" transform="translate(-1842.841 -2131.309)" fill="red"/><path id="Path_5073" data-name="Path 5073" d="M1883.857,2456.089l-41.017-26.462v-3.234l44.839,27.344Z" transform="translate(-1842.841 -2131.176)" fill="#dbe2f0"/><path id="Path_5074" data-name="Path 5074" d="M1877.17,2434.164l2.864-5.106,12.153,7.645-3.663,5.833Z" transform="translate(-1837.844 -2130.788)" fill="#dbe2f0"/><path id="Path_5075" data-name="Path 5075" d="M1970.725,2436.386l2.45,14.8-53.414,1.471s-1.078-2.156,6.665-3.431,25.09-5.489,27.344-9.114S1970.725,2436.386,1970.725,2436.386Z" transform="translate(-1831.651 -2129.721)" fill="red"/><path id="Path_5076" data-name="Path 5076" d="M1971.941,2454.107h-49.834l-2.352-3.332,53.415-1.47Z" transform="translate(-1831.645 -2127.841)" fill="#fff"/><path id="Path_5077" data-name="Path 5077" d="M1891.306,2252.987a10.623,10.623,0,0,1-7.527-4.573c-3.217-4.836-1.339-10.4-2.134-12.406-.851-2.141-4.745,1.5-3.775,4.593.876,2.8-1.77,7.568-6,5.639s-11.417-4.368-13.436-5.157c-3.132-1.226-4.19,1.2-1.6,2.677a42.259,42.259,0,0,0,6.529,3.844c4.179,1.962-.8,11.377,3.284,15.963,3.886,4.359,10.049,4.447,12.245,4.554s8.885.125,8.885.125Z" transform="translate(-1841.016 -2158.983)" fill="#b37159"/><path id="Path_5078" data-name="Path 5078" d="M1997.066,2224.609l-11.674,7.492-2.875,18.02a1.555,1.555,0,0,0,1.042,1.719l4.925,1.642-5.546,2.189a1.552,1.552,0,0,0-.983,1.488l1.074,37.445Z" transform="translate(-1822.59 -2160.549)" fill="#445d89"/><path id="Path_5079" data-name="Path 5079" d="M2019.928,2221.272s-10,11.982-18.622,12.937V2244.6s14.226-5.88,23.089-16.661Z" transform="translate(-1819.774 -2161.035)" fill="#dbe2f0"/><path id="Path_5080" data-name="Path 5080" d="M2019.227,2258.685l18.044-22.782a2.518,2.518,0,0,0-.73-3.753l-13.846-7.867s-14.211,22.336-19.4,35.634c-4.449,11.4-5.1,39.4-5.1,39.4s6.829-25.672,13.261-33.587a2.552,2.552,0,0,0,.166-2.991l-3.43-5.369,8.434,2.15A2.573,2.573,0,0,0,2019.227,2258.685Z" transform="translate(-1820.227 -2160.596)" fill="#445d89"/><path id="Path_5081" data-name="Path 5081" d="M2001.986,2239.019l-8.191,65.5-10.455-3.789,14.058-63.364Z" transform="translate(-1822.389 -2158.691)" fill="#20334f"/><path id="Path_5082" data-name="Path 5082" d="M1951.975,2298.143l-30.427,4.651s-2.258,2.977,6.269,3.86,24.159.173,24.159.173Z" transform="translate(-1831.423 -2149.845)" fill="#b37159"/><path id="Path_5083" data-name="Path 5083" d="M2002.335,2233.111a3.11,3.11,0,0,0-3.455-.793l-4.642,3.7s2.694,5.693,8.1,3.084Z" transform="translate(-1820.802 -2159.454)" fill="#20334f"/><path id="Path_5084" data-name="Path 5084" d="M1997.678,2221.272l-2.156,3.823s-3.807,6.956-2.785,14.335l6.812-5.869S1996.7,2226.173,1997.678,2221.272Z" transform="translate(-1821.046 -2161.035)" fill="#fff"/><path id="Path_5085" data-name="Path 5085" d="M2028.312,2227.09l-24.858,4.276-2.793-1.862-9.262,10.242-17,82.837,34.007,12.055,26.277-103.73Z" transform="translate(-1823.691 -2160.188)" fill="#fff"/><path id="Path_5086" data-name="Path 5086" d="M1999.027,2305.572l-65.862,22.934s-9.7,3.823-13.671,13.672-40.723,105.115-40.723,105.115l14.7,9.409,64.391-99.969,10.367-7.421,45.5-32.567Z" transform="translate(-1837.61 -2148.764)" fill="#3584df"/><path id="Path_5087" data-name="Path 5087" d="M2021.8,2193.363l-2.941,18.916,3.823,19.5-18.621,13.134s-9.215-13.458-7.252-16.368c1.888-2.8-3.47-8.049-5.292-14.077C1987.657,2214.975,2021.8,2193.363,2021.8,2193.363Z" transform="translate(-1821.243 -2165.097)" fill="#b37159"/><path id="Path_5088" data-name="Path 5088" d="M1886.812,2253l55.71,13.281,40.147-24.516,19.588-11.894,3.087,19.406-3.969,8.085-6.762,63.364s-7.2,19.406-10.585,18.817-10.585-7.35-10.585-7.35c3.969-3.235,17.056-16.318,17.056-16.318l-4.272-40.44a6.124,6.124,0,0,0-8.713-4.9c-7.811,3.7-17.4,8.352-23.428,11.619-11.564,6.272-16.036,3.55-18.965,2.765s-52.454-15.482-52.454-15.482Z" transform="translate(-1837.043 -2159.783)" fill="#1e3465"/><path id="Path_5089" data-name="Path 5089" d="M1893.56,2443.138l-5.88,10.731-44.839-27.344s1.616-2.94,9.555,1.03,17.79,8.38,26.168,7.791l3.6-.661Z" transform="translate(-1842.841 -2131.309)" fill="#10275b"/><path id="Path_5090" data-name="Path 5090" d="M1883.857,2456.089l-41.017-26.462v-3.234l44.839,27.344Z" transform="translate(-1842.841 -2131.176)" fill="#fff"/><path id="Path_5091" data-name="Path 5091" d="M1877.17,2434.164l2.864-5.106,12.153,7.645-3.663,5.833Z" transform="translate(-1837.844 -2130.788)" fill="#fa5767"/><path id="Path_5092" data-name="Path 5092" d="M1965.549,2428.532v13.816l-12.539,1.577-3.529-15.393" transform="translate(-1827.318 -2130.865)" fill="#fa5767"/><path id="Path_5093" data-name="Path 5093" d="M1939.285,2350.635c2.93,31.771,10.86,96.981,10.86,96.981h17.25l13.133-82.709,69.39,1.177,12.349-9.214-55.473-40.967-56.978,18.7A15.388,15.388,0,0,0,1939.285,2350.635Z" transform="translate(-1828.811 -2147.26)" fill="#3b96ff"/><path id="Path_5094" data-name="Path 5094" d="M2031.319,2227.953s6.994,4.12,13.609,8.06c5.649,3.366,10.1,7.514,13.042,20.157s6.423,42.421,4.8,71.155c-.807,14.285-3.333,33.519-8.233,41.751s-18.229,5.1-29.4-.979-35.382-23.915-35.382-23.915l15.577-75.271,3.234-13.394Z" transform="translate(-1821.455 -2160.062)" fill="#1e3465"/><path id="Path_5095" data-name="Path 5095" d="M1970.725,2436.386l2.45,14.8-53.414,1.471s-1.078-2.156,6.665-3.431,25.09-5.489,27.344-9.114S1970.725,2436.386,1970.725,2436.386Z" transform="translate(-1831.651 -2129.721)" fill="#10275b"/><path id="Path_5096" data-name="Path 5096" d="M1997.066,2224.609l-11.674,7.492-2.875,18.02a1.555,1.555,0,0,0,1.042,1.719l4.925,1.642-5.546,2.189a1.552,1.552,0,0,0-.983,1.488l1.074,37.445Z" transform="translate(-1822.59 -2160.549)" fill="#8c97b0"/><path id="Path_5097" data-name="Path 5097" d="M2020.081,2221.272s-11.2,14.748-19.826,15.7l1.2,7.624s14.226-5.88,23.089-16.661Z" transform="translate(-1819.927 -2161.035)" fill="#fff"/><path id="Path_5098" data-name="Path 5098" d="M2019.227,2258.685l18.044-22.782a2.518,2.518,0,0,0-.73-3.753l-13.846-7.867s-14.211,22.336-19.4,35.634c-4.449,11.4-5.1,39.4-5.1,39.4s6.829-25.672,13.261-33.587a2.552,2.552,0,0,0,.166-2.991l-3.43-5.369,8.434,2.15A2.573,2.573,0,0,0,2019.227,2258.685Z" transform="translate(-1820.227 -2160.596)" fill="#8c97b0"/><path id="Path_5099" data-name="Path 5099" d="M1947.761,2296.667l7.991-.644.007,11.039-7.852.083Z" transform="translate(-1827.568 -2150.153)" fill="#fff"/><path id="Path_5100" data-name="Path 5100" d="M2008.206,2297.221l-54.3,6.24v11.76l66.058.981s3.234,2.253,9.017-6.273,23.624-31.172,28.262-41.22c7.841-16.985-8.153-36.485-16.715-26.039C2035.706,2248.557,2014.93,2275.615,2008.206,2297.221Z" transform="translate(-1826.673 -2158.347)" fill="#1e3465"/><path id="Path_5101" data-name="Path 5101" d="M1996.059,2171.159s-6.353,1.646-7.56,4.328l-1.9,4.224a29.386,29.386,0,0,0-2.557,10.82l0,.072-6.3,12.935a1.686,1.686,0,0,0,1.03,2.458l2.966.5-.923,13.195a5.438,5.438,0,0,0,8.334,5.112l11.857-5.958,21.859-2.568s-.594-11.215,4.225-15.385C2027.086,2200.891,2039.534,2170.52,1996.059,2171.159Z" transform="translate(-1823.236 -2168.331)" fill="#b37159"/><path id="Path_5102" data-name="Path 5102" d="M2029.761,2181.132a8.672,8.672,0,0,0-1.3-2.634c-3.739-5.052-10.87-6.484-16.206-7.532-5.045-.991-9.747-.45-14.754-1.621s-10.786-1-14.651,2.391a5.709,5.709,0,0,0-1.624,6.481,14.277,14.277,0,0,0,2.455,3.626,9.115,9.115,0,0,0,4.334,3.253c2.235,1,9.155,1.943,10.237,4.343,1.3,2.889-2.906,8.884-3.427,11.895-.714,4.119-1.171,8.3-1.755,12.442a2.6,2.6,0,0,1-.429,1.3c-.608.754-1.778.6-2.72.369q-.455-2.409-1.077-4.782a5.7,5.7,0,0,0-1.991-3.544c-2.416-1.56-6.146-.691-7.351,1.91a9.881,9.881,0,0,0-.639,3.967q-.12,5.279-.239,10.558c-.037,1.6-.015,3.378,1.049,4.58,1.174,1.325,3.161,1.459,4.932,1.5,3.133.068,6.153-1.706,9.155-2.786a31.041,31.041,0,0,0,7.429-4.138,13.911,13.911,0,0,0,4.439-4.515,5.552,5.552,0,0,0-.26-6.019c-1.6-1.921-4.873-2.354-5.735-4.953-.791-2.381.6-5.586,1.895-7.5.849-1.249,1.988-2.539,3.5-2.607a3.444,3.444,0,0,1,2.91,1.677c1.9,2.929,1.669,7.7,2.138,11.036.463,3.291,1.4,6.358,4.625,7.542,2.716,1,6.453,1.652,9.112.081,2.536-1.5,3.057-5.472,3.817-8.183a77.119,77.119,0,0,0,2.83-22.934A19.683,19.683,0,0,0,2029.761,2181.132Z" transform="translate(-1823.077 -2168.689)" fill="#10275b"/></g><path id="Path_5103" data-name="Path 5103" d="M1974.4,2378.746v-4.7a8.552,8.552,0,0,1,9.352-8.516c15.332,1.438,45.08,4.1,54.746,4.1,13.231,0,18.51-3.926,21.228-15.151,2.68-11.065,21.911-91.022,36.032-91.056v3.464a2.812,2.812,0,0,1-.595,1.71c-1.448,1.885-5.309,7.985-9.033,23.116-4.7,19.111-22.934,75.271-22.934,75.271a21.827,21.827,0,0,1-18.818,11.762C2030.554,2379.333,1974.4,2378.746,1974.4,2378.746Z" transform="translate(-1663.45 -2069.101)" fill="#d6dae3"/><g id="Group_3310" data-name="Group 3310" transform="translate(28.218 250.074)"><rect id="Rectangle_436" data-name="Rectangle 436" width="10.067" height="161.108" fill="#b7bece"/></g><g id="Group_3311" data-name="Group 3311" transform="translate(65.256 250.074)"><rect id="Rectangle_437" data-name="Rectangle 437" width="10.067" height="161.108" fill="#b7bece"/></g><g id="Group_3312" data-name="Group 3312" transform="translate(342.685 250.074)"><rect id="Rectangle_438" data-name="Rectangle 438" width="8.823" height="161.402" fill="#b7bece"/></g><path id="Path_5104" data-name="Path 5104" d="M2074.585,2305.572H1702.961c0,6.593,3.343,11.937,7.467,11.937h356.69c4.124,0,7.467-5.344,7.467-11.937Z" transform="translate(-1702.961 -2062.966)" fill="#d9dce5"/><g id="Group_3318" data-name="Group 3318" transform="translate(323.114 111.226)" opacity="0.4"><g id="Group_3317" data-name="Group 3317"><g id="Group_3316" data-name="Group 3316"><g id="Group_3315" data-name="Group 3315"><g id="Group_3314" data-name="Group 3314"><g id="Group_3313" data-name="Group 3313"><path id="Path_5105" data-name="Path 5105" d="M1986.876,2192.062a.947.947,0,1,1-.871-1.174A1.044,1.044,0,0,1,1986.876,2192.062Z" transform="translate(-1985.017 -2190.886)" fill="#10275b"/></g></g></g></g></g></g><g id="Group_3319" data-name="Group 3319" transform="translate(322.754 106.95)" opacity="0.4"><path id="Path_5106" data-name="Path 5106" d="M1989.01,2190.285a.513.513,0,0,0,.606-.685,4.283,4.283,0,0,0-2.172-2.289,2.919,2.919,0,0,0-2.476.293.513.513,0,0,0,.495.9,1.9,1.9,0,0,1,1.635-.226,3.31,3.31,0,0,1,1.561,1.7A.513.513,0,0,0,1989.01,2190.285Z" transform="translate(-1984.703 -2187.154)" fill="#10275b"/></g><g id="Group_3320" data-name="Group 3320" transform="translate(210.439 42.456)"><line id="Line_213" data-name="Line 213" y1="0.399" x2="2.014" transform="translate(7.356 14.575)" fill="none" stroke="#10275b" stroke-linecap="round" stroke-width="0.8" opacity="0.3"/><path id="Path_5107" data-name="Path 5107" d="M1896.5,2130.924a7.1,7.1,0,0,1,3.74.54" transform="translate(-1885.228 -2130.855)" fill="none" stroke="#10275b" stroke-linecap="round" stroke-width="0.8" opacity="0.3"/><path id="Path_5108" data-name="Path 5108" d="M1886.66,2134.719a3.953,3.953,0,0,1,2.889-2.124" transform="translate(-1886.66 -2130.601)" fill="none" stroke="#10275b" stroke-linecap="round" stroke-width="0.8" opacity="0.3"/><ellipse id="Ellipse_99" data-name="Ellipse 99" cx="0.75" cy="1.291" rx="0.75" ry="1.291" transform="translate(1.515 5.398) rotate(-13.921)" fill="#10275b" opacity="0.3"/><ellipse id="Ellipse_100" data-name="Ellipse 100" cx="0.846" cy="1.456" rx="0.846" ry="1.456" transform="translate(11.717 2.743) rotate(-13.921)" fill="#10275b" opacity="0.3"/><path id="Path_5109" data-name="Path 5109" d="M1895.135,2149.926c-1.346.481-2.13-.7-3.235-.794,1.54-1.45,5.941-.766,7.475-1.837C1899.189,2147.86,1896.755,2149.347,1895.135,2149.926Z" transform="translate(-1885.897 -2128.462)" fill="#10275b" opacity="0.3"/></g></g></g><g id="Group_3323" data-name="Group 3323" transform="translate(1737.26 2113.672)"><rect id="Rectangle_439" data-name="Rectangle 439" width="103.975" height="137.862" transform="translate(108.846 142.036) rotate(-180)" fill="#eef0f4"/><path id="Path_5110" data-name="Path 5110" d="M1722.934,2249.654a14.521,14.521,0,0,1-14.521-14.52h104.235a14.521,14.521,0,0,0,14.521,14.52" transform="translate(-1703.534 -2093.097)" fill="#e7eaef"/><path id="Path_5111" data-name="Path 5111" d="M1822.74,2249.654a14.521,14.521,0,0,0,14.52-14.52H1733.886a14.521,14.521,0,0,1-14.521,14.52" transform="translate(-1701.94 -2093.097)" fill="#9fa9bd"/><rect id="Rectangle_440" data-name="Rectangle 440" width="113.717" height="6.933" fill="#bac0cf"/><rect id="Rectangle_441" data-name="Rectangle 441" width="58.454" height="4.137" transform="translate(86.085 30.793) rotate(-180)" fill="#10275b" opacity="0.25"/><rect id="Rectangle_442" data-name="Rectangle 442" width="58.454" height="4.137" transform="translate(86.085 43.52) rotate(-180)" fill="#10275b" opacity="0.25"/><rect id="Rectangle_443" data-name="Rectangle 443" width="58.454" height="4.137" transform="translate(86.085 56.247) rotate(-180)" fill="#10275b" opacity="0.25"/><rect id="Rectangle_444" data-name="Rectangle 444" width="58.454" height="4.137" transform="translate(86.085 68.974) rotate(-180)" fill="#10275b" opacity="0.25"/><rect id="Rectangle_445" data-name="Rectangle 445" width="58.454" height="4.137" transform="translate(86.085 81.7) rotate(-180)" fill="#10275b" opacity="0.25"/><path id="Path_5112" data-name="Path 5112" d="M1746.777,2229.746l-4.8-3.732-4.8,3.732v-20.266h9.6Z" transform="translate(-1699.347 -2096.832)" fill="#9fa9bd"/><path id="Path_5113" data-name="Path 5113" d="M1747.458,2200.089l.239,2.782a.951.951,0,0,0,1.213.832l2.682-.78a.952.952,0,0,1,1.108,1.358l-1.3,2.47a.953.953,0,0,0,.572,1.356l2.677.793a.951.951,0,0,1,.2,1.74l-2.431,1.374a.952.952,0,0,0-.253,1.45l1.824,2.115a.952.952,0,0,1-.775,1.572l-2.788-.159a.952.952,0,0,0-1,1.083l.391,2.765a.951.951,0,0,1-1.5.9l-2.259-1.64a.952.952,0,0,0-1.424.372l-1.166,2.537a.952.952,0,0,1-1.752-.052l-1.013-2.6a.952.952,0,0,0-1.4-.456l-2.353,1.5a.951.951,0,0,1-1.445-.991l.555-2.737a.952.952,0,0,0-.93-1.141l-2.793-.006a.952.952,0,0,1-.68-1.615l1.946-2a.951.951,0,0,0-.166-1.462l-2.346-1.515a.952.952,0,0,1,.3-1.727l2.72-.632a.952.952,0,0,0,.651-1.321l-1.154-2.542a.952.952,0,0,1,1.186-1.29l2.63.938a.952.952,0,0,0,1.261-.758l.4-2.763a.951.951,0,0,1,1.694-.443l1.706,2.211a.952.952,0,0,0,1.471.043l1.834-2.106A.951.951,0,0,1,1747.458,2200.089Z" transform="translate(-1700.297 -2098.354)" fill="#ffb502"/></g><g id="Group_3335" data-name="Group 3335" transform="translate(1545.5 2243.246)"><g id="Group_3328" data-name="Group 3328" transform="translate(74.399)"><g id="Group_3324" data-name="Group 3324" transform="translate(3.475 44.044)"><path id="Path_5114" data-name="Path 5114" d="M1605.665,2266.4c37.994,23.525,26.172,78.535,25.66,116.554-.565,41.921-1.13,14.639-1.694,56.559-.034,2.525,3.889,2.527,3.923,0,.675-50.1,1.349-31,2.024-81.1.476-35.374,6.529-74.065-27.932-95.4-2.153-1.333-4.125,2.059-1.981,3.387Z" transform="translate(-1604.74 -2262.703)" fill="#516187"/></g><path id="Path_5115" data-name="Path 5115" d="M1627.2,2285.331a47.907,47.907,0,0,0-6.128-10.41c-3.953-4.731-9.459-7.846-14.839-10.858l-.79.423c-3.108,8.08-4.721,16.943-3.1,25.448s6.809,16.576,14.612,20.329c5.722,2.752,12.487,3.111,17.826,6.548C1636.292,2305.962,1631.9,2295.229,1627.2,2285.331Z" transform="translate(-1601.706 -2218.461)" fill="#516187"/><g id="Group_3325" data-name="Group 3325" transform="translate(30.49)"><path id="Path_5116" data-name="Path 5116" d="M1663.126,2224.4c-37.733,14.967-29.613,72.2-31.133,104.461-2.58,54.7-3.973,66.148-3.615,120.913.017,2.524,3.94,2.53,3.924,0-.3-45.535.445-47.816,2.356-93.313.863-20.558,1.9-41.111,2.867-61.665,1.128-23.863.031-56.057,26.644-66.614,2.318-.92,1.308-4.715-1.042-3.782Z" transform="translate(-1628.322 -2224.256)" fill="#516187"/></g><g id="Group_3326" data-name="Group 3326" transform="translate(35.691 1.965)"><path id="Path_5117" data-name="Path 5117" d="M1636.374,2281.924c-.069-.189-.118-.385-.184-.575a17.782,17.782,0,0,0-1.527,2.884Z" transform="translate(-1632.599 -2217.909)" fill="#516187"/><path id="Path_5118" data-name="Path 5118" d="M1664.614,2227.484a1.936,1.936,0,0,0-2.881-1.3c-12.275,3.642-21.962,14.05-26.164,26.145-4.137,11.9-3.288,25.183.882,37.083,4.69-7.406,14.217-11.107,20.888-17.249C1669.179,2261.26,1671,2242.259,1664.614,2227.484Z" transform="translate(-1632.862 -2225.971)" fill="#516187"/></g><g id="Group_3327" data-name="Group 3327" transform="translate(30.741 126.028)"><path id="Path_5119" data-name="Path 5119" d="M1632.711,2399.175c-.59-15.157-1.279-33.109,9.979-44.989,8.79-9.274,31.327-15.666,43.96-15.993,2.52-.065,2.529-3.989,0-3.923-9.634.249-19.685,4.069-28.76,7.15-6.676,2.267-12.994,4.775-17.974,9.991-12.094,12.67-11.761,31.493-11.129,47.763.1,2.517,4.021,2.529,3.924,0Z" transform="translate(-1628.541 -2334.269)" fill="#516187"/></g><path id="Path_5120" data-name="Path 5120" d="M1689.12,2332.927a1.223,1.223,0,0,0-.961-.271l-14.228.121a50.15,50.15,0,0,0-12.234,1.109c-8.019,2.085-14.512,8.01-19.586,14.561l-1.477.226c7.4,2.361,14.667,5.459,22.392,6.263s16.288-1.155,21.129-7.23c3.083-3.87,4.283-8.883,5.1-13.762A1.222,1.222,0,0,0,1689.12,2332.927Z" transform="translate(-1596.04 -2208.476)" fill="#516187"/></g><g id="Group_3329" data-name="Group 3329" transform="translate(75.087 199.619)"><path id="Rectangle_446" data-name="Rectangle 446" d="M0,0H65.029a0,0,0,0,1,0,0V46.493a19.1,19.1,0,0,1-19.1,19.1H19.1A19.1,19.1,0,0,1,0,46.493V0A0,0,0,0,1,0,0Z" fill="#bec5d3"/></g><g id="Group_3330" data-name="Group 3330" transform="translate(75.087 199.558)" opacity="0.3"><path id="Path_5121" data-name="Path 5121" d="M1622.936,2398.456h-20.629v44.463a20.871,20.871,0,0,0,9.389,17.437c.021-.065.065-.116.082-.182l15.021-56.7A4,4,0,0,0,1622.936,2398.456Z" transform="translate(-1602.307 -2398.456)" fill="#10275b"/></g><g id="Group_3334" data-name="Group 3334" transform="translate(0 133.868)"><path id="Path_5122" data-name="Path 5122" d="M1596.193,2352.141c-.249-3.77-.528-7.657-2.229-11.028a60.124,60.124,0,0,0-11.613,52.71l3.51,3.26c5.792-5.455,8.925-13.261,10.15-21.123S1596.715,2360.08,1596.193,2352.141Z" transform="translate(-1530.397 -2341.113)" fill="#516187"/><path id="Path_5123" data-name="Path 5123" d="M1626.406,2368.732a1.851,1.851,0,0,0-1.026-.479,26.764,26.764,0,0,0-32.6,26.135l2.366,2.856c4.989,1.362,10.206-1.182,14.346-4.281a51.055,51.055,0,0,0,16.913-22.309C1626.645,2370.024,1626.852,2369.24,1626.406,2368.732Z" transform="translate(-1528.607 -2337.253)" fill="#516187"/><path id="Path_5124" data-name="Path 5124" d="M1557.095,2369.25c-5.305-4.311-11.479-8.524-18.3-8.107a2.165,2.165,0,0,0-1.888.852c-.746,1.414,1.641,2.478,2.1,4.009a5.751,5.751,0,0,1-.352,2.735,8.922,8.922,0,0,0,.826,4.973c6.241,15.657,23.909,25.88,40.594,23.487l2.076-3.26A184.231,184.231,0,0,0,1557.095,2369.25Z" transform="translate(-1536.761 -2338.202)" fill="#516187"/><g id="Group_3331" data-name="Group 3331" transform="translate(39.078 52.238)"><path id="Path_5125" data-name="Path 5125" d="M1571.686,2391.2c11.9,11.3,13.432,28.073,11.379,43.546-.446,3.369,4.855,3.336,5.3,0,2.236-16.854-.065-35.077-12.93-47.292-2.472-2.346-6.224,1.393-3.746,3.746Z" transform="translate(-1570.874 -2386.713)" fill="#516187"/></g><g id="Group_3332" data-name="Group 3332" transform="translate(51.473 48.034)"><path id="Path_5126" data-name="Path 5126" d="M1581.736,2386.366c2.518,14.877-.692,29.908.9,44.856.357,3.355,5.658,3.392,5.3,0-1.642-15.438,1.517-30.878-1.087-46.264-.567-3.354-5.673-1.932-5.108,1.408Z" transform="translate(-1581.693 -2383.043)" fill="#516187"/></g><g id="Group_3333" data-name="Group 3333" transform="translate(54.245 49.097)"><path id="Path_5127" data-name="Path 5127" d="M1596.907,2385.178c-4.368,6.556-8.782,13.71-10.824,21.4-2.216,8.34-1.583,17.722-1.966,26.29-.152,3.407,5.146,3.4,5.3,0,.361-8.075-.223-17.036,1.777-24.882,1.826-7.166,6.218-14.019,10.291-20.131,1.9-2.845-2.691-5.5-4.574-2.674Z" transform="translate(-1584.113 -2383.972)" fill="#516187"/></g><path id="Path_5128" data-name="Path 5128" d="M1605.867,2461.279H1576.3a2.678,2.678,0,0,1-2.589-1.992l-10.065-37.994a2.677,2.677,0,0,1,2.588-3.362h49.7a2.676,2.676,0,0,1,2.588,3.362l-10.065,37.994A2.68,2.68,0,0,1,1605.867,2461.279Z" transform="translate(-1532.86 -2329.931)" fill="#bec5d3"/></g></g></g></svg>